<svg xmlns="http://www.w3.org/2000/svg" xmlns:xlink="http://www.w3.org/1999/xlink" viewBox="0 0 332.17 366"><defs><style>.cls-1{fill:none;}.cls-2{isolation:isolate;}.cls-3{fill:#ffc161;}.cls-4{fill:#d8d8d8;}.cls-5{fill:#fff;}.cls-6{fill:#353530;}.cls-7{fill:#0f0c00;}.cls-8{fill:#c8d3d6;}.cls-9{fill:#f49779;}.cls-10{fill:#7a650e;}.cls-11{clip-path:url(#clip-path);}.cls-12{fill:#cc684e;}.cls-13{fill:#191400;}.cls-14{fill:#1e2c35;}.cls-15{fill:#030c11;}.cls-16{fill:#aa9e93;}.cls-17{fill:#606060;}.cls-18{fill:#937e25;}.cls-19{opacity:0.2;mix-blend-mode:multiply;}</style><clipPath id="clip-path"><rect class="cls-1" x="145.43" y="144" width="68" height="69" transform="translate(358.85 357) rotate(180)"/></clipPath></defs><title>c_question</title><g class="cls-2"><g id="图层_2" data-name="图层 2"><g id="图层_2-2" data-name="图层 2"><path class="cls-3" d="M292.05,103.37H294q9.64,0,15.34,5.07a14.91,14.91,0,0,1,4.75,11.11v1.5A16.84,16.84,0,0,1,310,132.37a15.11,15.11,0,0,1-3.77,3.11,21.61,21.61,0,0,1-4.16,1.94c-1.39.41-3.43.9-6.14,1.46a5.26,5.26,0,0,1-3.69,1.53h-.33q-3,0-4.93-3.07a6.06,6.06,0,0,1-.62-2.48v-.48q0-3,3.18-5.33a11.15,11.15,0,0,1,3.76-1.39q5.47-1,7.16-2.08,2.16-1.27,2.16-5.23c0-1.94-.49-3.2-1.46-3.76q-2.59-1.75-7.86-1.75h-.55A57.48,57.48,0,0,0,280,116.63h-.77a5.59,5.59,0,0,1-4.71-2.74,4,4,0,0,1-.7-1.87v-2.19a4.89,4.89,0,0,1,1.5-2.92,6.59,6.59,0,0,1,3.54-1.79A59.94,59.94,0,0,1,292.05,103.37Zm-.26,40.33h.44a6.3,6.3,0,0,1,5.12,2.85,5.8,5.8,0,0,1,1.09,3.21v.3s0,0,0,0l0,.11v.26a6.11,6.11,0,0,1-2.88,5,6.61,6.61,0,0,1-3.29,1h-.77a6.21,6.21,0,0,1-4.89-2.56,6,6,0,0,1-1.17-3.39v-.59a6.27,6.27,0,0,1,1.79-4.16A6.45,6.45,0,0,1,291.79,143.7Z"/><polygon class="cls-4" points="51.78 213 15.78 181 33.78 170 75.78 205.81 51.78 213"/><polygon class="cls-5" points="47.98 211 19.78 184.95 33.88 176 66.78 205.15 47.98 211"/><path class="cls-6" d="M85.78,189s-71,38-81,44-4,25,15,15,79-45,79-45Z"/><path class="cls-7" d="M117.78,189s-64,19-71,36,40,34,47,57,52,46,52,46Z"/><path class="cls-8" d="M258.35,195.26a8.68,8.68,0,0,0,.12-.91,8.49,8.49,0,0,0-7.8-9.14,5.24,5.24,0,0,0-.56,0,8.35,8.35,0,0,0,.14-1,9,9,0,0,0-12.75-8.88,9,9,0,0,0-15.15-1.16,8,8,0,1,0-.76,9.56,9,9,0,0,0,11.75,4,9,9,0,0,0,7.23,4.75,8.85,8.85,0,0,0,1,0,5,5,0,0,0-.07.56,8.49,8.49,0,0,0,6.33,8.89,7.49,7.49,0,1,0,10.49-6.64Z"/><rect class="cls-9" x="145.43" y="144" width="68" height="69"/><path class="cls-7" d="M213.43,175.11s24.85,2.74,22.6,11.31S248.78,202,248.78,202l-21.72-5.51-13.63-17.28Z"/><path class="cls-7" d="M283.28,270c0-39.67-31-87.44-70.11-90.81-1.45-.13-2.91-.19-4.39-.19-28.58,0-29,18.17-29,46.75V366h103.5Z"/><path class="cls-10" d="M268.76,356h0V264a89,89,0,0,0-89-89h-11a89,89,0,0,0-89,89v92h0a96.84,96.84,0,0,0,.69,10H268.08A94.14,94.14,0,0,0,268.76,356Z"/><path class="cls-9" d="M213.43,179s2.35,13-14.65,13c-18,0-40-9-40-9l47-8Z"/><g class="cls-11"><ellipse class="cls-12" cx="171.13" cy="149.25" rx="63.03" ry="42.16" transform="translate(-42.94 73.52) rotate(-21.61)"/></g><path class="cls-13" d="M149.91,176.09s-7.79-.09,19,2.91,6.83,24,10.83,41c3.94,16.71-22,6-22,6Z"/><path class="cls-13" d="M185.28,225.75a51.75,51.75,0,0,0-103.5,0V366h103.5Z"/><path class="cls-14" d="M194.66,126c-4.79,0-14.35,4.78-19.14,16s23.92,11.16,27.11,4.78S199.44,126,194.66,126Z"/><path class="cls-9" d="M112.85,68v52c0,24.85,18.5,45,41.32,45h50.51C227.5,165,246,144.85,246,120V68Zm66.93,79c0-1,6-6,11-5s6,5,5,5-.06-3-6-3S179.78,148,179.78,147Z"/><path class="cls-14" d="M168.68,105.37l1.93-1.29c-.91-2.37-2.61-4-4.56-4-2.91,0-5.27,3.53-5.27,7.89s2.36,7.89,5.27,7.89,5.26-3.53,5.26-7.89a12,12,0,0,0-.18-2Z"/><path class="cls-14" d="M215.68,105.37l1.93-1.29c-.91-2.37-2.61-4-4.56-4-2.91,0-5.27,3.53-5.27,7.89s2.36,7.89,5.27,7.89,5.26-3.53,5.26-7.89a12,12,0,0,0-.18-2Z"/><circle class="cls-15" cx="109.78" cy="87" r="30"/><ellipse class="cls-15" cx="164.64" cy="40.29" rx="61" ry="35.35" transform="translate(-4.69 47.89) rotate(-16.32)"/><circle class="cls-15" cx="242.28" cy="40.5" r="40.5"/><ellipse class="cls-15" cx="198.28" cy="57" rx="22.5" ry="22"/><path class="cls-9" d="M133.78,108s-7-11-25-10-20,18-5,21,20,14,20,14Z"/><path class="cls-5" d="M133.53,175h0a51.51,51.51,0,0,1,23.14,5.46,12.48,12.48,0,0,0-14.83-18.63,12.47,12.47,0,0,0-19.59-2A12.49,12.49,0,0,0,102,167.3a12.71,12.71,0,0,0-2.71-.3,12.5,12.5,0,0,0-12.5,12.5,13.66,13.66,0,0,0,.11,1.58,12.49,12.49,0,0,0-.68,24.73A51.76,51.76,0,0,1,133.53,175Z"/><path class="cls-16" d="M170.66,185.11l3.12,2.89,4.15-1.28a1.59,1.59,0,0,1,.64,2.8L174.78,191l-2.05,3.19a1.59,1.59,0,0,1-2.55-.89l.6-3.3-2-3A1.58,1.58,0,0,1,170.66,185.11Z"/><ellipse class="cls-7" cx="20.28" cy="171.5" rx="18.5" ry="15.5"/><ellipse class="cls-17" cx="20.28" cy="171.5" rx="11.5" ry="9.5"/><path class="cls-18" d="M244.33,243.94c-3-.71-6.14,13-7.2,31.51a110.35,110.35,0,0,0-11.95-.38c-4.34.07-8.58.33-12.39.74-.75-21.94-4.65-40-9.12-40.78-4.87-.88-8.5,18.85-7.92,44s5.08,44.33,9.86,43.31c4.31-.92,7.37-18.1,7.32-39.27,3.86.14,8.16.11,12.55-.14a113.57,113.57,0,0,0,11.38-1.15c-.58,19.62,1.52,34.86,4.74,34.35s6.33-16.74,7-36.13S247.45,244.68,244.33,243.94Z"/><path class="cls-9" d="M147.65,273.51A38.5,38.5,0,1,0,74.6,249.18L35.69,366h81.16Z"/><rect class="cls-9" x="215.32" y="137.3" width="77" height="170.88" rx="38.5" transform="translate(-69.44 320.41) rotate(-58.08)"/><rect class="cls-9" x="209.71" y="149.45" width="42.86" height="19.65" rx="9.83" transform="translate(-47.49 193.3) rotate(-41.53)"/><rect class="cls-9" x="172.61" y="141.94" width="19.65" height="44.38" rx="9.83" transform="translate(-51 239.8) rotate(-59.94)"/><rect class="cls-9" x="167.86" y="156.17" width="19.65" height="44.38" rx="9.83" transform="translate(-41.42 302.35) rotate(-74.61)"/><rect class="cls-9" x="168.48" y="173.24" width="19.65" height="44.38" rx="9.83" transform="translate(-57.43 315.5) rotate(-74.61)"/><rect class="cls-9" x="174.8" y="185.89" width="19.65" height="44.38" rx="9.83" transform="translate(-41.19 370.55) rotate(-84.15)"/><g class="cls-19"><path class="cls-9" d="M312,211.88,235.2,164l9.15-8.1a9.83,9.83,0,1,0-13-14.71l-17.23,15.26a38.63,38.63,0,0,0-17.07,3,10,10,0,0,0-1-.64l-21.4-12.39a9.83,9.83,0,0,0-11.46,15.84,9.82,9.82,0,0,0-4,18.52,9.81,9.81,0,0,0,2.54,17.83l.19.06a9.73,9.73,0,0,0-1.42,4.14,9.83,9.83,0,0,0,8.77,10.78l9.56,1a38.18,38.18,0,0,0,12.74,13l79.69,49.64a38.49,38.49,0,0,0,53-12.32h0A38.5,38.5,0,0,0,312,211.88Z"/></g><path class="cls-9" d="M314,214.88,237.2,167l9.15-8.1a9.83,9.83,0,1,0-13-14.71l-17.23,15.26a38.63,38.63,0,0,0-17.07,3,10,10,0,0,0-1-.64l-21.4-12.39a9.83,9.83,0,0,0-11.46,15.84,9.82,9.82,0,0,0-4,18.52,9.81,9.81,0,0,0,2.54,17.83l.19.06a9.73,9.73,0,0,0-1.42,4.14,9.83,9.83,0,0,0,8.77,10.78l9.56,1a38.18,38.18,0,0,0,12.74,13l79.69,49.64a38.49,38.49,0,0,0,53-12.32h0A38.5,38.5,0,0,0,314,214.88Z"/></g></g></g></svg>