<svg xmlns="http://www.w3.org/2000/svg" xmlns:xlink="http://www.w3.org/1999/xlink" viewBox="0 0 434.94 370.66"><defs><style>.cls-1{fill:none;}.cls-2{fill:#ffc161;}.cls-3{fill:#f49779;}.cls-4{fill:#d8d8d8;}.cls-5{fill:#fff;}.cls-6{fill:#353530;}.cls-7{fill:#0f0c00;}.cls-8{fill:#c8d3d6;}.cls-9{fill:#7a650e;}.cls-10{clip-path:url(#clip-path);}.cls-11{fill:#cc684e;}.cls-12{fill:#191400;}.cls-13{fill:#1e2c35;}.cls-14{fill:#030c11;}.cls-15{fill:#aa9e93;}.cls-16{fill:#606060;}.cls-17{fill:#937e25;}</style><clipPath id="clip-path"><rect class="cls-1" x="145.43" y="149.66" width="68" height="69" transform="translate(358.85 368.32) rotate(180)"/></clipPath></defs><title>c_rank</title><g id="图层_2" data-name="图层 2"><g id="图层_2-2" data-name="图层 2"><path class="cls-2" d="M376.28,60.32l-2.24-8A54.11,54.11,0,0,0,363,31.71l-1.33-1.55h0A53.91,53.91,0,0,0,374.21,7.6L376.28,0l1.93,7.24a54,54,0,0,0,12.32,22.51l.37.41-1.64,1.94a54,54,0,0,0-10.81,20.43Z"/><path class="cls-2" d="M398.49,81.53l-1.38-4.93a33.5,33.5,0,0,0-6.8-12.7l-.82-.95h0a33.22,33.22,0,0,0,7.72-13.9l1.28-4.68,1.19,4.46a33.32,33.32,0,0,0,7.59,13.87l.23.25-1,1.2a33.21,33.21,0,0,0-6.66,12.58Z"/><path class="cls-3" d="M433.25,145.05h0a9.75,9.75,0,0,0-3.74-3.27l.12-.08a9.83,9.83,0,0,0,2.62-13.65h0a9.78,9.78,0,0,0-5-3.78,9.81,9.81,0,0,0,1-12.22h0a9.81,9.81,0,0,0-13.32-2.82,9.77,9.77,0,0,0-1.68-5.18h0a9.81,9.81,0,0,0-13.64-2.62l-14.26,9.65-.56,0L381.57,98a9.83,9.83,0,1,0-19.08,4.71l3.15,12.76a37.24,37.24,0,0,0-3.68,2.2l-124.21,84.1a38.5,38.5,0,0,0-10.29,53.47h0a38.5,38.5,0,0,0,53.46,10.29l124.21-84.1a38.28,38.28,0,0,0,12.45-13.89l13.05-8.83A9.83,9.83,0,0,0,433.25,145.05Z"/><polygon class="cls-4" points="51.78 218.66 15.78 186.66 33.78 175.66 75.78 211.47 51.78 218.66"/><polygon class="cls-5" points="47.98 216.66 19.78 190.61 33.88 181.66 66.78 210.81 47.98 216.66"/><path class="cls-6" d="M85.78,194.66s-71,38-81,44-4,25,15,15,79-45,79-45Z"/><path class="cls-7" d="M117.78,194.66s-64,19-71,36,40,34,47,57,52,46,52,46Z"/><path class="cls-8" d="M258.35,200.92a8.68,8.68,0,0,0,.12-.91,8.49,8.49,0,0,0-7.8-9.14,5.24,5.24,0,0,0-.56,0,8.35,8.35,0,0,0,.14-1A9,9,0,0,0,237.5,181a9,9,0,0,0-15.15-1.17,8,8,0,1,0-.76,9.56,9,9,0,0,0,11.75,4,9,9,0,0,0,7.23,4.75,8.85,8.85,0,0,0,1,0,5,5,0,0,0-.07.56,8.49,8.49,0,0,0,6.33,8.89,7.49,7.49,0,1,0,10.49-6.64Z"/><rect class="cls-3" x="145.43" y="149.66" width="68" height="69"/><path class="cls-7" d="M213.43,180.77s24.85,2.74,22.6,11.31,12.75,15.58,12.75,15.58l-21.72-5.51-13.63-17.28Z"/><path class="cls-7" d="M283.28,275.66c0-39.67-31-87.44-70.11-90.81-1.45-.13-2.91-.19-4.39-.19h0c-28.58,0-29,18.17-29,46.75V370.66h103.5Z"/><path class="cls-9" d="M268.76,361.66h0v-92a89,89,0,0,0-89-89h-11a89,89,0,0,0-89,89v92h0c0,3,.25,6,.57,9H268.19C268.52,367.7,268.72,364.7,268.76,361.66Z"/><path class="cls-3" d="M213.43,184.66s2.35,13-14.65,13c-18,0-40-9-40-9l47-8Z"/><g class="cls-10"><ellipse class="cls-11" cx="171.13" cy="154.91" rx="63.03" ry="42.16" transform="translate(-45.02 73.92) rotate(-21.61)"/></g><path class="cls-12" d="M149.91,181.75s-7.79-.09,19,2.91,6.83,24,10.83,41c3.94,16.71-22,6-22,6Z"/><path class="cls-13" d="M194.66,131.62c-4.79,0-14.35,4.78-19.14,15.95s23.92,11.16,27.11,4.78S199.44,131.62,194.66,131.62Z"/><path class="cls-3" d="M112.85,73.66v52c0,24.85,18.5,45,41.32,45h50.51c22.82,0,41.32-20.15,41.32-45v-52Zm84.93,77c-3,6-15,6-18.53-3.37,3.53,2.37,5.6,5.37,11.53,5.37S200.19,145.84,197.78,150.66Z"/><path class="cls-13" d="M168.68,111l1.93-1.29c-.91-2.37-2.61-4-4.56-4-2.91,0-5.27,3.53-5.27,7.89s2.36,7.89,5.27,7.89,5.26-3.53,5.26-7.89a12,12,0,0,0-.18-2Z"/><circle class="cls-14" cx="109.78" cy="92.66" r="30"/><ellipse class="cls-14" cx="164.64" cy="45.95" rx="61" ry="35.35" transform="translate(-6.28 48.12) rotate(-16.32)"/><circle class="cls-14" cx="242.28" cy="46.16" r="40.5"/><ellipse class="cls-14" cx="198.28" cy="62.66" rx="22.5" ry="22"/><path class="cls-3" d="M133.78,113.66s-7-11-25-10-20,18-5,21,20,14,20,14Z"/><path class="cls-13" d="M211.78,116.66s7-7,17-4a4.94,4.94,0,0,1-3,1l3,1s-12-2-16,2Z"/><path class="cls-5" d="M133.53,180.66h0a51.51,51.51,0,0,1,23.14,5.46,12.48,12.48,0,0,0-14.83-18.63,12.47,12.47,0,0,0-19.59-2A12.49,12.49,0,0,0,102,173a12.71,12.71,0,0,0-2.71-.3,12.5,12.5,0,0,0-12.5,12.5,13.66,13.66,0,0,0,.11,1.58,12.49,12.49,0,0,0-.68,24.73A51.76,51.76,0,0,1,133.53,180.66Z"/><path class="cls-15" d="M170.66,190.77l3.12,2.89,4.15-1.28a1.59,1.59,0,0,1,.64,2.8l-3.79,1.48-2.05,3.19a1.59,1.59,0,0,1-2.55-.89l.6-3.3-2-3A1.58,1.58,0,0,1,170.66,190.77Z"/><ellipse class="cls-7" cx="20.28" cy="177.16" rx="18.5" ry="15.5"/><ellipse class="cls-16" cx="20.28" cy="177.16" rx="11.5" ry="9.5"/><path class="cls-17" d="M244.33,249.6c-3-.71-6.14,13-7.2,31.51a110.35,110.35,0,0,0-11.95-.38c-4.34.07-8.58.33-12.39.74-.75-21.94-4.65-40-9.12-40.78-4.87-.88-8.5,18.85-7.92,44S200.83,329,205.61,328c4.31-.92,7.37-18.1,7.32-39.27,3.86.14,8.16.11,12.55-.14a113.57,113.57,0,0,0,11.38-1.15c-.58,19.62,1.52,34.86,4.74,34.35s6.33-16.74,7-36.13S247.45,250.34,244.33,249.6Z"/><path class="cls-12" d="M185.28,231.41a51.75,51.75,0,0,0-51.75-51.75h0a51.75,51.75,0,0,0-51.75,51.75V370.66h103.5Z"/><path class="cls-3" d="M147.65,279.17A38.5,38.5,0,1,0,74.6,254.84L36,370.66h81.16Z"/></g></g></svg>