<svg xmlns="http://www.w3.org/2000/svg" xmlns:xlink="http://www.w3.org/1999/xlink" viewBox="0 0 1610.55 910.69"><defs><style>.cls-1{fill:none;}.cls-2{isolation:isolate;}.cls-3{opacity:0.3;}.cls-3,.cls-8{mix-blend-mode:multiply;}.cls-4{fill:#c15c00;}.cls-5{clip-path:url(#clip-path);}.cls-6{fill:#f2f2f2;}.cls-7{fill:#e27100;}.cls-8{opacity:0.25;}.cls-9{fill:#e6e6e6;}.cls-10{clip-path:url(#clip-path-2);}.cls-11,.cls-15{fill:#ccc;}.cls-12{fill:#f7931e;}.cls-13{fill:#00aae3;}.cls-14{clip-path:url(#clip-path-3);}.cls-15{opacity:0.4;}</style><clipPath id="clip-path"><path class="cls-1" d="M1592.62,894.83l-715.86-8.34a10.85,10.85,0,0,0-8.24,3.64l-.94,1a10.83,10.83,0,0,1-8.11,3.65H804.89a10.88,10.88,0,0,1-8.17-3.71h0a10.85,10.85,0,0,0-8.28-3.71L82.89,894.83A7.93,7.93,0,0,1,75,886.89V14.46a7.93,7.93,0,0,1,7.93-7.93l750.67,2.8,759.06-2.8a7.93,7.93,0,0,1,7.93,7.93V886.89A7.93,7.93,0,0,1,1592.62,894.83Z"/></clipPath><clipPath id="clip-path-2"><path class="cls-1" d="M1577.61,832.64H89.27a4,4,0,0,0-4,4.88l6.7,32a4,4,0,0,0,4,3.21l711.43-5.57a3.73,3.73,0,0,1,3.73,3.73h0a5.6,5.6,0,0,0,5.6,5.6h32.66a5.6,5.6,0,0,0,5.6-5.6h0a3.73,3.73,0,0,1,3.73-3.73l710.64,5.57a4,4,0,0,0,3.95-3l8.19-32A4,4,0,0,0,1577.61,832.64Z"/></clipPath><clipPath id="clip-path-3"><polygon class="cls-1" points="833.55 23.66 84.29 19 84.29 842.91 833.55 850.37 859.68 850.11 1582.82 842.91 1582.82 24.83 833.55 23.66"/></clipPath></defs><title>资源 138</title><g class="cls-2"><g id="图层_2" data-name="图层 2"><g id="图层_2-2" data-name="图层 2"><g class="cls-3"><path d="M1602.62,899.83l-715.86-8.34a10.85,10.85,0,0,0-8.24,3.64l-.94,1a10.83,10.83,0,0,1-8.11,3.65H814.89a10.88,10.88,0,0,1-8.17-3.71h0a10.85,10.85,0,0,0-8.28-3.71L92.89,899.83A7.93,7.93,0,0,1,85,891.89V19.46a7.93,7.93,0,0,1,7.93-7.93l750.67,2.8,759.06-2.8a7.93,7.93,0,0,1,7.93,7.93V891.89A7.93,7.93,0,0,1,1602.62,899.83Z"/></g><path class="cls-4" d="M1592.62,894.83l-715.86-8.34a10.85,10.85,0,0,0-8.24,3.64l-.94,1a10.83,10.83,0,0,1-8.11,3.65H804.89a10.88,10.88,0,0,1-8.17-3.71h0a10.85,10.85,0,0,0-8.28-3.71L82.89,894.83A7.93,7.93,0,0,1,75,886.89V14.46a7.93,7.93,0,0,1,7.93-7.93l750.67,2.8,759.06-2.8a7.93,7.93,0,0,1,7.93,7.93V886.89A7.93,7.93,0,0,1,1592.62,894.83Z"/><g class="cls-5"><rect class="cls-6" x="858.75" y="860.3" width="7.46" height="50.39"/><rect class="cls-6" x="868.08" y="858.44" width="1.87" height="50.39"/></g><path class="cls-7" d="M1592.62,888.29,876.76,880a10.9,10.9,0,0,0-8.24,3.65l-.94,1a10.82,10.82,0,0,1-8.11,3.64H804.89a10.87,10.87,0,0,1-8.17-3.7h0a10.85,10.85,0,0,0-8.28-3.71L82.89,888.29A7.93,7.93,0,0,1,75,880.36V7.93A7.93,7.93,0,0,1,82.89,0H1592.62a7.93,7.93,0,0,1,7.93,7.93V880.36A7.93,7.93,0,0,1,1592.62,888.29Z"/><path class="cls-8" d="M1581.63,879.22s-25.63-.39-101.63-1.39-614.21-.45-614.21-.45a19.2,19.2,0,0,0-7.37,1.44h0a30.62,30.62,0,0,1-11.61,2.26L814.9,881a19.39,19.39,0,0,1-8.3-1.9h0a19.4,19.4,0,0,0-8.31-1.9S175,875.83,136,875.83s-43.31,3.4-43.31-44.64V89.37A44.31,44.31,0,0,1,137,45.06L409.94,23.59l894.82,1.87,282.73-1.87-.93,850.72A4.92,4.92,0,0,1,1581.63,879.22Z"/><path class="cls-9" d="M1577.61,832.64H89.27a4,4,0,0,0-4,4.88l6.7,32a4,4,0,0,0,4,3.21l711.43-5.57a3.73,3.73,0,0,1,3.73,3.73h0a5.6,5.6,0,0,0,5.6,5.6h32.66a5.6,5.6,0,0,0,5.6-5.6h0a3.73,3.73,0,0,1,3.73-3.73l710.64,5.57a4,4,0,0,0,3.95-3l8.19-32A4,4,0,0,0,1577.61,832.64Z"/><g class="cls-10"><path class="cls-11" d="M1538.74,851.56l46-1.19v4.16l-46-2.37A.3.3,0,0,1,1538.74,851.56Z"/><path class="cls-11" d="M160.54,851.57l-79.11.69,0-3.94L160.56,851C161.22,851,161.21,851.57,160.54,851.57Z"/><path class="cls-11" d="M149.41,859.7l-79.12.69,0-3.94,79.11,2.68C150.09,859.16,150.07,859.7,149.41,859.7Z"/><path class="cls-11" d="M1551.71,859.57l31.11-.8v2.8L1551.7,860A.2.2,0,0,1,1551.71,859.57Z"/></g><polygon class="cls-12" points="237.54 95.06 0 95.06 29.69 65.67 0 42.16 237.54 42.16 237.54 95.06"/><polygon class="cls-13" points="265.55 165.6 28.01 165.6 57.7 136.21 28.01 112.7 265.55 112.7 265.55 165.6"/><polygon class="cls-6" points="833.55 23.66 84.29 19 84.29 842.91 833.55 850.37 859.68 850.11 1582.82 842.91 1582.82 19 833.55 23.66"/><g class="cls-14"><rect class="cls-15" x="831.69" y="20.86" width="3.73" height="832.31"/></g></g></g></g></svg>