<svg xmlns="http://www.w3.org/2000/svg" xmlns:xlink="http://www.w3.org/1999/xlink" viewBox="0 0 1536.55 973"><defs><style>.cls-1{fill:none;}.cls-2{isolation:isolate;}.cls-3{opacity:0.3;}.cls-12,.cls-3,.cls-8,.cls-9{mix-blend-mode:multiply;}.cls-4{fill:#42126b;}.cls-5{clip-path:url(#clip-path);}.cls-6{fill:#f2f2f2;}.cls-7{fill:#662d91;}.cls-8{opacity:0.2;}.cls-9{opacity:0.45;}.cls-10{fill:#f15a24;}.cls-11{fill:#e6e6e6;mix-blend-mode:soft-light;}.cls-12{fill:#c6380c;opacity:0.5;}</style><clipPath id="clip-path"><path class="cls-1" d="M8.89,960A7.93,7.93,0,0,1,1,952.07V79.64a7.93,7.93,0,0,1,7.93-7.93l750.67,2.8,759.06-2.8a7.93,7.93,0,0,1,7.93,7.93V952.07a7.93,7.93,0,0,1-7.93,7.93Z"/></clipPath></defs><title>clip</title><g class="cls-2"><g id="图层_2" data-name="图层 2"><g id="图层_2-2" data-name="图层 2"><g class="cls-3"><path d="M18.89,965A7.93,7.93,0,0,1,11,957.07V84.64a7.93,7.93,0,0,1,7.93-7.93l750.67,2.8,759.06-2.8a7.93,7.93,0,0,1,7.93,7.93V957.07a7.93,7.93,0,0,1-7.93,7.93Z"/></g><path class="cls-4" d="M8.89,960A7.93,7.93,0,0,1,1,952.07V79.64a7.93,7.93,0,0,1,7.93-7.93l750.67,2.8,759.06-2.8a7.93,7.93,0,0,1,7.93,7.93V952.07a7.93,7.93,0,0,1-7.93,7.93Z"/><g class="cls-5"><rect class="cls-6" x="7" y="940" width="3" height="33"/><rect class="cls-6" y="934" width="5" height="33"/></g><rect class="cls-7" x="0.96" y="65.17" width="1525.59" height="888.29" rx="7.93"/><g class="cls-8"><rect x="41" y="102" width="1454" height="818" rx="2.75"/></g><rect class="cls-6" x="37" y="98" width="1454" height="818" rx="2.75"/><g class="cls-9"><path d="M166.85,75.69A7.85,7.85,0,0,1,159,83.53H90.26A23.47,23.47,0,0,0,66.79,107h0v16.66A1.35,1.35,0,0,0,68.14,125H357.45a1.34,1.34,0,0,0,1.34-1.34V107h0a23.46,23.46,0,0,0-23.46-23.47H266.59a7.85,7.85,0,0,1-7.85-7.84V49.79a25.52,25.52,0,0,0-8.91-19.38l-1.41-1.21a24.23,24.23,0,0,1-7.48-10.93A25.54,25.54,0,0,0,222.52,1.14a42.05,42.05,0,0,0-19.45,0,25.88,25.88,0,0,0-18.37,17,25.56,25.56,0,0,1-7.53,11.08l-1.41,1.21a25.52,25.52,0,0,0-8.91,19.38Zm45.94-61.17a11.21,11.21,0,1,1-11.2,11.2A11.2,11.2,0,0,1,212.79,14.52Z"/></g><path class="cls-10" d="M162.85,75.69A7.85,7.85,0,0,1,155,83.53H86.26A23.47,23.47,0,0,0,62.79,107h0v16.66A1.35,1.35,0,0,0,64.14,125H353.45a1.34,1.34,0,0,0,1.34-1.34V107h0a23.46,23.46,0,0,0-23.46-23.47H262.59a7.85,7.85,0,0,1-7.85-7.84V49.79a25.52,25.52,0,0,0-8.91-19.38l-1.41-1.21a24.23,24.23,0,0,1-7.48-10.93A25.54,25.54,0,0,0,218.52,1.14a42.05,42.05,0,0,0-19.45,0,25.88,25.88,0,0,0-18.37,17,25.56,25.56,0,0,1-7.53,11.08l-1.41,1.21a25.52,25.52,0,0,0-8.91,19.38Zm45.94-61.17a11.21,11.21,0,1,1-11.2,11.2A11.2,11.2,0,0,1,208.79,14.52Z"/><path class="cls-11" d="M221.94,3c6,3,11.26,10.18,13.12,16a26.2,26.2,0,0,0,8.06,11.76l1.41,1.21a23.53,23.53,0,0,1,8.21,17.86v25.9a8.64,8.64,0,0,0,2.4,6.44c1.8,1.85,7.45,1.4,7.45,1.4a7.85,7.85,0,0,1-7.85-7.84V49.79a25.52,25.52,0,0,0-8.91-19.38l-1.09-.94A25.94,25.94,0,0,1,236.85,18,25.54,25.54,0,0,0,218.52,1.14S219.94,2,221.94,3Z"/><rect class="cls-12" x="64.29" y="114.99" width="289" height="1.98" rx="0.99"/></g></g></g></svg>