<svg xmlns="http://www.w3.org/2000/svg" xmlns:xlink="http://www.w3.org/1999/xlink" viewBox="0 0 264.59 328.24"><defs><style>.cls-1{fill:none;}.cls-2{fill:#23aeb5;}.cls-3{fill:#d8d8d8;}.cls-4{fill:gray;}.cls-5{fill:#353530;}.cls-6{fill:#0f0c00;}.cls-7{fill:#17242d;}.cls-8{fill:#c8d3d6;}.cls-9{fill:#f49779;}.cls-10{fill:#cc684e;}.cls-11{fill:#253745;}.cls-12{fill:#7a650e;}.cls-13{clip-path:url(#clip-path);}.cls-14{fill:#191400;}.cls-15{fill:#e87070;}.cls-16{fill:#030c11;}.cls-17{fill:#fff;}.cls-18{fill:#aa9e93;}.cls-19{fill:#606060;}.cls-20{fill:#937e25;}</style><clipPath id="clip-path"><rect class="cls-1" x="110.36" y="140.72" width="32.8" height="33.28"/></clipPath></defs><title>right_pic</title><g id="图层_2" data-name="图层 2"><g id="图层_2-2" data-name="图层 2"><path class="cls-2" d="M107.6,327.81c53.61-5.17,194.79-117,147.43-246.43S-.16-18.48,0,137.26,54,333,107.6,327.81Z"/><polygon class="cls-3" points="188.32 174 205.69 158.57 197.01 153.26 176.75 170.54 188.32 174"/><polygon class="cls-4" points="190.16 173.04 203.76 160.47 196.96 156.16 181.09 170.22 190.16 173.04"/><path class="cls-5" d="M171.93,162.43s34.24,18.33,39.06,21.22,1.93,12.06-7.23,7.23-38.1-21.7-38.1-21.7Z"/><path class="cls-6" d="M156.49,162.43s30.87,9.16,34.25,17.36-19.3,16.4-22.67,27.49S143,229.47,143,229.47Z"/><path class="cls-7" d="M83.59,242.49v84.34a84.66,84.66,0,0,0,24,1,73,73,0,0,0,18-4.49V242.49Z"/><path class="cls-8" d="M88.69,165.45a3.32,3.32,0,0,1-.06-.44,4.1,4.1,0,0,1,3.76-4.41h.28a2.76,2.76,0,0,1-.07-.49,4.34,4.34,0,0,1,4-4.67,4.19,4.19,0,0,1,2.17.39,4.33,4.33,0,0,1,7.3-.57,3.86,3.86,0,1,1,.37,4.62,4.34,4.34,0,0,1-3.5,2.31,4.4,4.4,0,0,1-2.17-.39,4.33,4.33,0,0,1-3.48,2.29h-.5c0,.09,0,.18,0,.27a4.11,4.11,0,0,1-3.06,4.29,3.62,3.62,0,1,1-5.06-3.2Z"/><rect class="cls-9" x="110.36" y="140.72" width="32.8" height="33.28"/><rect class="cls-10" x="64.78" y="174.93" width="37.14" height="109.49" rx="18.57" transform="translate(111.57 -13.02) rotate(26.58)"/><path class="cls-6" d="M110.36,155.73s-12,1.32-10.9,5.45-6.15,7.52-6.15,7.52L103.78,166l6.58-8.33Z"/><path class="cls-6" d="M101.63,295.23h0a25,25,0,0,0,25-25V180.15c0-13.78-.21-22.55-14-22.55h0c-.71,0-1.42,0-2.12.09-18.86,1.63-33.82,24.67-33.82,43.81v68.77A25,25,0,0,0,101.63,295.23Z"/><path class="cls-11" d="M116.56,252.36l8.69,71.08c12.08-4.43,26.09-11.95,40.48-22.09l-7.51-54.05Z"/><path class="cls-12" d="M126.59,155.67h5.3a42.94,42.94,0,0,1,42.93,42.94V243h0a45.58,45.58,0,0,1-91.14,0h0V198.61A42.94,42.94,0,0,1,126.59,155.67Z"/><path class="cls-9" d="M110.36,157.6s-1.14,6.27,7.06,6.27c8.68,0,19.3-4.34,19.3-4.34l-22.67-3.86Z"/><g class="cls-13"><ellipse class="cls-10" cx="130.76" cy="143.25" rx="20.34" ry="30.4" transform="translate(-50.58 212.06) rotate(-68.39)"/></g><path class="cls-14" d="M141,156.2s3.75,0-9.19,1.4-3.29,11.58-5.22,19.78,10.61,2.89,10.61,2.89Z"/><rect class="cls-14" x="123.93" y="155.19" width="49.92" height="140.03" rx="24.96" transform="translate(297.79 450.42) rotate(-180)"/><path class="cls-15" d="M119.41,132c2.31,0,6.92,2.31,9.23,7.69S117.1,145.1,115.57,142,117.1,132,119.41,132Z"/><path class="cls-9" d="M158.87,104.06v25.09c0,12-8.92,21.7-19.93,21.7H114.58c-11,0-19.93-9.72-19.93-21.7V104.06Zm-41.76,37.39c1.15,2.49,11.45,2.49,9.73-1.87s-4-6.24-6.87-6.24S116,139,117.11,141.45Z"/><path class="cls-16" d="M105.48,122.16l-1.71-.69a2.58,2.58,0,0,1,2.2-1.92c1.4,0,2.54,1.7,2.54,3.81s-1.14,3.81-2.54,3.81-2.54-1.71-2.54-3.81a6.15,6.15,0,0,1,.09-1Z"/><path class="cls-16" d="M133.14,122.16l-2.13-.69a2.58,2.58,0,0,1,2.2-1.92c1.4,0,2.54,1.7,2.54,3.81s-1.14,3.81-2.54,3.81-2.54-1.71-2.54-3.81a6.15,6.15,0,0,1,.09-1Z"/><circle class="cls-16" cx="160.35" cy="113.23" r="14.47"/><ellipse class="cls-16" cx="133.89" cy="90.7" rx="17.05" ry="29.42" transform="matrix(0.28, -0.96, 0.96, 0.28, 9.22, 193.71)"/><circle class="cls-16" cx="96.44" cy="90.8" r="19.53"/><ellipse class="cls-16" cx="117.66" cy="98.76" rx="10.85" ry="10.61"/><path class="cls-9" d="M148.77,123.36s3.38-5.31,12.06-4.83,9.65,8.69,2.41,10.13-9.64,6.76-9.64,6.76Z"/><path class="cls-17" d="M148.89,155.67h0a24.85,24.85,0,0,0-11.15,2.64,6,6,0,0,1,5-9.39,6.13,6.13,0,0,1,2.15.4,6,6,0,0,1,9.44-.94,6,6,0,0,1,9.78,3.58,6.24,6.24,0,0,1,1.3-.14,6,6,0,0,1,6,6,6.49,6.49,0,0,1-.05.77,6,6,0,0,1,.33,11.93A25,25,0,0,0,148.89,155.67Z"/><path class="cls-18" d="M131,160.55l-1.51,1.39-2-.61a.77.77,0,0,0-.31,1.35l1.83.71,1,1.54a.77.77,0,0,0,1.23-.43l-.29-1.59,1-1.44A.77.77,0,0,0,131,160.55Z"/><ellipse class="cls-6" cx="203.52" cy="153.99" rx="8.92" ry="7.48"/><ellipse class="cls-19" cx="203.52" cy="153.99" rx="5.55" ry="4.58"/><path class="cls-20" d="M95.46,188.93c1.45-.35,3,6.27,3.47,15.19a55.33,55.33,0,0,1,5.76-.18c2.1,0,4.14.16,6,.36.37-10.58,2.25-19.28,4.41-19.67,2.35-.43,4.1,9.09,3.81,21.21s-2.45,21.38-4.75,20.89c-2.08-.44-3.55-8.73-3.53-18.94-1.86.07-3.94.05-6.06-.07a54.61,54.61,0,0,1-5.48-.55c.27,9.46-.74,16.81-2.29,16.57s-3-8.08-3.39-17.43S94,189.28,95.46,188.93Z"/><path class="cls-1" d="M184.76,284.41l-.28,2.38,1.22-1.05-.47-1.41Z"/><path class="cls-9" d="M204.86,267.52l-3.73-1.7a18.54,18.54,0,0,0-.95-5.73l-22.86-68.64a18.57,18.57,0,0,0-35.24,11.74L165,271.83c.13.4.29.78.45,1.16l-4.29,6.46a5.31,5.31,0,1,0,8.84,5.87l2.51-3.79a19.73,19.73,0,0,0,1.83,1.06l-1.13,9.62a5.24,5.24,0,0,0,.65,3.21q5.34-4.1,10.67-8.63l.28-2.38.47-.08.47,1.41C192.2,280.14,198.64,274.05,204.86,267.52Z"/><rect class="cls-10" x="61.95" y="268.93" width="9.48" height="20.67" rx="4.74" transform="translate(183.54 541.54) rotate(169.41)"/><rect class="cls-10" x="53.49" y="269.99" width="9.48" height="21.4" rx="4.74" transform="translate(85.19 566.1) rotate(-173.68)"/><rect class="cls-10" x="45.4" y="266.72" width="9.48" height="23.52" rx="4.74" transform="translate(-33.54 548.79) rotate(-152.59)"/><rect class="cls-10" x="41.21" y="262.25" width="9.48" height="20.67" rx="4.74" transform="translate(-182.41 428.37) rotate(-114.73)"/><rect class="cls-10" x="44.3" y="254.21" width="9.48" height="20.67" rx="4.74" transform="translate(-219.29 284.15) rotate(-83.68)"/></g></g></svg>